<?xml version="1.0" encoding="UTF-8"?>
<svg id="a" data-name="Layer 1" xmlns="http://www.w3.org/2000/svg" viewBox="0 0 1712.94 415.62">
  <defs>
    <style>
      .b {
        fill: #f1c0bf;
      }

      .c {
        fill: #fdfdfc;
      }

      .d {
        fill: #e39493;
      }
    </style>
  </defs>
  <path class="d" d="M340.91,251.97c-.11-22.62,1.12-43.41-.6-66.42l-32.4,55.43-32.21,54.38-14.28-.38-64.54-107.66-.98,36.57-.06,45.19.29,48.98-27.48.04.27-147.5c.02-13.06-.64-24.87.12-37.1,8.46-.39,15.83-1.04,23.86-.41l54.19,90.59,21.88,35.53,74.71-125.67,23.9-.09.36,53.58v27.89s-.02,47.1-.02,47.1v33.84s-.15,22.08-.15,22.08l-26.55.25-.32-66.23Z"/>
  <path class="d" d="M778.03,268.98c-.06,17.13.75,32.88-.53,49.1l-22.65-.04-62.35-77.46-9.83-12.31-22.49-27.51c-4.91-6-8.34-12.73-15.12-18.18v135.43s-27.55.03-27.55.03l-.04-184.51,23.36-.15,109.62,135.55.08-135.46,27.16-.02.31,17.63v40.41s.2,30.63.2,30.63l-.16,46.87Z"/>
  <path class="d" d="M1145.75,133.4h21.36s43.11.18,43.11.18v23.27s-18.58-.11-18.58-.11l-19.55.09h-65.78s.04,54.68.04,54.68l91.92-.03-.05,23.71-91.93-.02.07,59.27,108.23-.12.14,23.88h-135.47s-.13-61.57-.13-61.57c-.01-5-1.18-9.69-.03-14.63l-.55-46.27c1.65-4.12.1-8.14.14-12.26l.5-50.08,66.56.02Z"/>
  <path class="d" d="M588.12,318.14l-14.59-.19-11.89-.46-20.54-45.75h-98.27s-20.32,45.65-20.32,45.65c-3.78.88-6.93.32-10.04.35l-15.2.1c-1.12,0-2.23.17-3.43-.49l25.3-55.3,58.14-128.65,28.97.11,21.71,47.44,20.86,45.33,6.17,13.46c1.53,3.33,2.82,5.79,4.26,8.89l16.46,35.37c1.92,4.12,3.44,7.64,5.38,11.75l9.78,20.78c.46.97-2.07,1.37-2.75,1.63ZM461.31,229.66l-8.21,19.84h77.83s-38.98-88.2-38.98-88.2l-9.02,19.62c-3.42,7.45-6.44,14.74-9.78,22.22l-11.84,26.51Z"/>
  <path class="d" d="M1256.48,217.4l-5.73-7.27c-2.85-3.76-4.99-8.27-6.23-12.57-5.2-17.97.55-37.51,15.22-49.8,23.33-19.55,61.79-21.02,90.28-11.83,9.07,2.93,16.75,7.56,25.03,12.25l-10.07,22.62c-15.07-11.49-32.36-16.23-50.5-16.65-12.01-.1-23.76,1.85-33.53,8.67-10.35,7.23-14.12,21.51-6.6,31.76,5.37,7.32,13.8,11.42,22.47,13.6l36.74,9.22c26.26,6.59,49.04,20.45,49.5,49.12.22,13.9-4.69,27.31-15.39,36.13-9.74,8.03-20.3,13.9-32.82,16.11-33.48,5.9-70.68-.58-96.65-23.06l10.12-21.04,14.37,9.52c16.71,8.56,34.48,13.9,53.34,12.89s38.93-9.02,39.09-27.14c.15-16.63-16.02-24.63-32.43-28.79l-31.08-7.89c-12.89-3.41-24.73-8.39-35.14-15.85Z"/>
  <polygon class="d" points="1032.11 218.69 1032.22 242.23 939.33 242.19 939.28 317.92 911.54 317.88 911.53 133.02 1043.86 132.95 1043.9 157.11 939.36 157.17 939.32 218.74 1032.11 218.69"/>
  <path class="d" d="M1483.42,213.01l.03,14.2v90.16c-2.3.81-4.32.35-6.5.42l-13.11.4-8.05-.56-.06-160.78-62.01.24-.09-23.73h151.77s-.19,23.68-.19,23.68l-61.75-.33-.04,56.3Z"/>
  <path class="b" d="M412.46,317.74c-12.87,30.88-42.08,51.64-76.29,53.41l-64.07.59c-13.01,8.1-25.08,15.69-38.8,23.21l4.6-23.39H78.04c-3.25,8.25-10,14.19-17.29,15.16-8.63,1.15-16.54-1.95-21.39-9.18-7.29-10.87-2.54-25.56,8.99-30.67s24.77,0,29.35,12.37l160.5.08-3.89-22.49,37.41,22.58,60.21-.44c27.08-1.2,50.5-14.7,64.38-37.71.77-1.28,1.19-2.22.96-3.41l15.2-.1Z"/>
  <path class="b" d="M1167.11,133.39h-21.36c.13-1.59-.54-2.89-1.95-4.25l-13.73-13.27-24.62-23.49c-17.09-16.3-37.78-28.17-61.96-29.75l-49.66-.4-38.34,23,5.44-23.28-67.46.64c-21.03,1.18-37.22,17.92-40.76,37.98-1.77,10.04-.61,31.26.36,31.88,1.81,1.17,6.39-.62,6.39,3.08-6.64-2.82-13.78-2-20.85-2.07l.61-22.01c-1.83-32.88,22.69-60.62,55.84-62.41l65.72-.34-4.4-22.03,37.42,21.81,46.17.55c16.49.2,31.72,5.13,46.01,12.91s24.84,17.2,35.96,28.02l26.87,26.17,9.17,8.82c3.04,2.93,5.55,6.23,9.14,8.43Z"/>
  <path class="d" d="M838.6,133.47c7.07.06,14.21-.75,20.85,2.07l-.02,180.88c-.96-.18-1.83.44-1.99,1.54h-5.69s-13.6,0-13.6,0l-4.67-.05c-.34-.67-.82-1.14-1.46-1.45l.09-181.21c1.47-.17,2.61-.69,3.15-1.81l3.34.03Z"/>
  <path class="b" d="M588.12,318.14c-3.49,1.34,21.08,40.75,64.7,40.92l56.03.21c-1.37-8.35-4.61-15.11-4.04-22.45l38.11,22.14,57.96-.22c22.03-1.35,37.61-20.13,37.27-40.79h13.6c-1.19,30.35-23.33,53.68-54.27,53.69l-55.15.03-38.45,23.14,4.87-23.06-55.26-.2c-33.05-.12-62.84-17.92-78.03-47.03-1.22-2.33-1.99-4.36-1.91-6.58l14.59.19Z"/>
  <path class="b" d="M1476.95,317.79c-1.06,20.92,16.98,41.03,37.98,41.11l120.68.48c4.13-10.3,13-15.55,23.32-14.22,8.73,1.12,17.25,8.65,18.26,18.52,1.2,11.63-6.86,21.46-17.9,23.1-10.54,1.56-20.7-4.11-24.02-15.17l-117.75-.13c-18.7-.02-36.05-9.67-45.79-25.14-5.46-8.67-7.33-18.46-7.87-28.14l13.11-.4Z"/>
  <path class="b" d="M1483.45,227.21l-.03-14.2,51.22.64-3.63-22.09,46.39,28.42-46.87,29.21,3.78-22.41-47.8-.25c-1.28,0-2.38.62-3.06.68Z"/>
  <path class="b" d="M1191.64,156.74c-.06.4-.11,1.43.54,2.08,14,14.15,29.63,25.79,46.33,36.61,2.04,1.32,3.43,2.86,6.01,2.13,1.24,4.3,3.38,8.81,6.23,12.57l5.73,7.27c-33.59-10.77-58.06-34.27-83.23-58.62-.58-.56-.62-1.63-1.15-1.95l19.55-.09Z"/>
  <path class="b" d="M835.26,133.44c-.54,1.12-1.68,1.65-3.15,1.81-.63-.57-.5-1.94.38-2.21.94-.28,2.04.39,2.77.39Z"/>
  <path class="b" d="M833.48,317.91c-.41,0-.58.95-1.51.55-.48-.21-.64-.81-.44-1.25.12-.26.21-.45.48-.75.64.3,1.13.78,1.46,1.45Z"/>
  <path class="b" d="M859.43,316.42c0,.5.43,1.37-.45,2.01-.47.34-1.1-.47-1.54-.47.17-1.11,1.03-1.72,1.99-1.54Z"/>
  <path class="c" d="M461.31,229.66l11.84-26.51c3.34-7.48,6.36-14.77,9.78-22.22l9.02-19.62,38.98,88.19h-77.83s8.21-19.83,8.21-19.83Z"/>
</svg>