<?xml version="1.0" encoding="UTF-8"?>
<svg id="g" data-name="OBJECTS" xmlns="http://www.w3.org/2000/svg" viewBox="0 0 180 180">
  <defs>
    <style>
      .h {
        fill: #fff;
      }

      .i {
        fill: #e5e5e5;
      }

      .j {
        fill: #7f7f7f;
      }
    </style>
  </defs>
  <g>
    <path class="h" d="M48.27,131.88c-22.59,0-40.97-18.38-40.97-40.97s18.38-40.97,40.97-40.97,40.97,18.38,40.97,40.97-18.38,40.97-40.97,40.97Z"/>
    <path class="i" d="M48.27,53.44c20.66,0,37.47,16.81,37.47,37.47s-16.81,37.47-37.47,37.47S10.8,111.57,10.8,90.91s16.81-37.47,37.47-37.47M48.27,46.44c-24.56,0-44.47,19.91-44.47,44.47s19.91,44.47,44.47,44.47,44.47-19.91,44.47-44.47-19.91-44.47-44.47-44.47h0Z"/>
  </g>
  <g>
    <path class="h" d="M90.06,131.88c-22.59,0-40.97-18.38-40.97-40.97s18.38-40.97,40.97-40.97,40.97,18.38,40.97,40.97-18.38,40.97-40.97,40.97Z"/>
    <path class="j" d="M90.06,53.44c20.66,0,37.47,16.81,37.47,37.47s-16.81,37.47-37.47,37.47-37.47-16.81-37.47-37.47,16.81-37.47,37.47-37.47M90.06,46.44c-24.56,0-44.47,19.91-44.47,44.47s19.91,44.47,44.47,44.47,44.47-19.91,44.47-44.47-19.91-44.47-44.47-44.47h0Z"/>
  </g>
  <g>
    <path class="h" d="M131.85,131.88c-22.59,0-40.97-18.38-40.97-40.97s18.38-40.97,40.97-40.97,40.97,18.38,40.97,40.97-18.38,40.97-40.97,40.97Z"/>
    <path d="M131.85,53.44c20.66,0,37.47,16.81,37.47,37.47s-16.81,37.47-37.47,37.47-37.47-16.81-37.47-37.47,16.81-37.47,37.47-37.47M131.85,46.44c-24.56,0-44.47,19.91-44.47,44.47s19.91,44.47,44.47,44.47,44.47-19.91,44.47-44.47-19.91-44.47-44.47-44.47h0Z"/>
  </g>
</svg>