<?xml version="1.0" encoding="UTF-8"?>
<svg id="g" data-name="OBJECTS" xmlns="http://www.w3.org/2000/svg" viewBox="0 0 180 180">
  <defs>
    <style>
      .h {
        fill: #fff;
      }
    </style>
  </defs>
  <g>
    <rect class="h" x="36.67" y="26.02" width="85.79" height="109.51" rx="10.28" ry="10.28"/>
    <path d="M112.18,28.02c4.57,0,8.28,3.72,8.28,8.28v88.94c0,4.57-3.72,8.28-8.28,8.28H46.95c-4.57,0-8.28-3.72-8.28-8.28V36.31c0-4.57,3.72-8.28,8.28-8.28h65.22M112.18,24.02H46.95c-6.78,0-12.28,5.5-12.28,12.28v88.94c0,6.78,5.5,12.28,12.28,12.28h65.22c6.78,0,12.28-5.5,12.28-12.28V36.31c0-6.78-5.5-12.28-12.28-12.28h0Z"/>
  </g>
  <g>
    <rect class="h" x="56.15" y="45.51" width="85.79" height="109.51" rx="10.28" ry="10.28"/>
    <path d="M131.66,47.51c4.57,0,8.28,3.72,8.28,8.28v88.94c0,4.57-3.72,8.28-8.28,8.28h-65.22c-4.57,0-8.28-3.72-8.28-8.28V55.79c0-4.57,3.72-8.28,8.28-8.28h65.22M131.66,43.51h-65.22c-6.78,0-12.28,5.5-12.28,12.28v88.94c0,6.78,5.5,12.28,12.28,12.28h65.22c6.78,0,12.28-5.5,12.28-12.28V55.79c0-6.78-5.5-12.28-12.28-12.28h0Z"/>
  </g>
</svg>