<?xml version="1.0" encoding="UTF-8"?>
<svg id="a" data-name="Layer 1" xmlns="http://www.w3.org/2000/svg" viewBox="0 0 180 180">
  <path d="M23.18,47.71c-3.19-7.44-8.04-12.45-15.61-15.34,7.41-2.95,12.53-8.2,15.64-15.44,3.07,7.6,7.94,12.36,15.46,15.35-7.21,3.08-12.38,7.56-15.5,15.43Z"/>
  <path d="M153.26,151.63c-2.7-5.5-6.16-9.2-11.84-11.67,5.41-2.83,9.37-6.22,11.78-12.07,2.64,5.53,6,9.34,12,11.9-5.41,2.62-9.14,5.95-11.94,11.84Z"/>
  <polygon points="57.36 41.45 23.58 74.86 91.4 164.88 157.35 75 125.39 41.39 57.36 41.45"/>
</svg>