<?xml version="1.0" encoding="UTF-8"?>
<svg id="a" data-name="Layer 1" xmlns="http://www.w3.org/2000/svg" viewBox="0 0 180 180">
  <defs>
    <style>
      .h {
        fill: #fff;
      }
    </style>
  </defs>
  <polygon class="h" points="153.53 159.89 165.17 148.23 165.18 121.42 141.8 90.14 147.86 57.51 111.83 16.63 77.93 16.64 70.48 65.66 58.62 79.69 65.97 87.89 101.69 87.89 123.9 152.72 118.12 159.92 153.53 159.89"/>
  <polygon class="h" points="112.99 150.75 94.77 97.54 61.58 97.52 46.34 80.48 31.54 80.54 10.72 145.9 19.85 159.93 105.63 159.91 112.99 150.75"/>
  <polygon points="153.53 159.89 118.12 159.92 123.9 152.72 101.69 87.89 65.97 87.89 58.62 79.69 70.48 65.66 77.93 16.64 111.83 16.63 147.86 57.51 141.8 90.14 165.18 121.42 165.17 148.23 153.53 159.89"/>
  <polygon points="112.99 150.75 105.63 159.91 19.85 159.93 10.72 145.9 31.54 80.54 46.34 80.48 61.58 97.52 94.77 97.54 112.99 150.75"/>
</svg>