<?xml version="1.0" encoding="UTF-8"?>
<svg id="d" data-name="Layer 2" xmlns="http://www.w3.org/2000/svg" viewBox="0 0 180 180">
  <path d="M90.25,20.6c-38.23-.17-69.51,30.84-69.65,69.08-.17,38.28,30.84,69.58,69.12,69.72,38.21.15,69.48-30.84,69.68-69.12.12-38.26-30.87-69.53-69.15-69.68ZM130.43,131.41l-4.44,3.98c-1.2.91-2.62,1.97-4.15,2.95-1.78,1.22-3.6,2.28-5.37,3.12-8.04,4.22-17.22,6.48-26.53,6.48h-.14c-9.5-.02-18.52-2.3-26.84-6.76l-5.25-3.14c-1.54-1.01-2.71-1.87-3.74-2.73l-.05-.03-.48-.33-4.01-3.67-.26-.26c-11.1-11.08-17.2-25.71-17.12-41.23.02-3.38.34-6.57.93-9.76.34-2.18.77-4.15,1.32-6,.36-1.25.84-2.57,1.27-3.81l.26-.72c.84-2.3,1.68-4.12,2.64-5.8,8.39-16.69,24.56-28.33,43.2-31.01,1.94-.31,3.96-.48,5.92-.5.65-.08,1.32-.1,2.02-.1,0,0,.6-.02.62-.02.94,0,1.75.02,2.64.15,1.51.02,3.38.19,5.85.53,18.56,2.83,34.66,14.58,43.1,31.45,1.08,2.18,1.87,3.98,2.45,5.68.65,1.41,1.1,3.1,1.51,4.65.65,2.11,1.1,4.2,1.34,6.07.5,2.88.79,6.16.82,9.62-.07,15.69-6.28,30.32-17.51,41.23Z"/>
  <path d="M144.75,80.85c-.24-1.92-.72-3.88-1.3-5.75-.38-1.51-.79-3.02-1.44-4.46-.65-1.85-1.46-3.64-2.33-5.4-7.92-15.81-23.17-27.39-41.28-30.15-1.94-.26-3.91-.48-5.83-.52-.79-.1-1.54-.12-2.33-.12-.86.02-1.68,0-2.47.12-1.94.02-3.91.19-5.78.48-18.13,2.61-33.51,14.06-41.45,29.84-1.01,1.75-1.78,3.53-2.47,5.4-.5,1.44-1.06,2.95-1.49,4.44-.55,1.85-.96,3.77-1.27,5.73-.57,3.07-.86,6.14-.89,9.33-.07,15.45,6.28,29.43,16.43,39.53l.19.19,4.01,3.67.17.07c1.17,1.01,2.47,1.92,3.72,2.73l5.13,3.09c7.65,4.1,16.36,6.45,25.71,6.48,9.23.02,17.97-2.21,25.64-6.24,1.78-.84,3.5-1.87,5.11-2.97,1.34-.86,2.61-1.8,3.84-2.74l4.36-3.91c10.27-9.98,16.72-23.98,16.79-39.48-.02-3.17-.26-6.31-.79-9.36ZM137.74,72.41c.55,1.32.98,2.78,1.32,4.03t.02.1l-31.16,9.98c-.29-1.56-.79-3.05-1.46-4.44l31.16-10.03c.05.15.05.22.12.36ZM135.25,66.63l-34.54,8.54-2.35-35.35c15.78,2.57,29.43,12.59,36.89,26.81ZM104.93,85.84c0,1.46-1.2,2.64-2.66,2.64s-2.66-1.18-2.66-2.64,1.2-2.66,2.66-2.66,2.66,1.18,2.66,2.66ZM100.28,100.23c0,1.46-1.17,2.64-2.66,2.64s-2.66-1.18-2.66-2.64,1.2-2.66,2.66-2.66,2.66,1.18,2.66,2.66ZM87.76,39.17c.19-.05.38-.07.55-.07.5-.03.98-.03,1.51-.03h.72c.48,0,1.03,0,1.89.1h.1l-.12,32.71c-.79-.12-1.61-.17-2.42-.17s-1.61.05-2.4.17l.17-32.71ZM89.99,74.18c1.49,0,2.66,1.18,2.66,2.66s-1.17,2.64-2.66,2.64-2.66-1.18-2.66-2.64,1.2-2.66,2.66-2.66ZM89.99,82.62c4.08,0,7.39,3.31,7.39,7.39s-3.31,7.36-7.39,7.36-7.36-3.31-7.36-7.36,3.31-7.39,7.36-7.39ZM82.41,97.57c1.46,0,2.66,1.18,2.66,2.66s-1.2,2.64-2.66,2.64-2.66-1.18-2.66-2.64,1.2-2.66,2.66-2.66ZM77.8,88.48c-1.46,0-2.66-1.18-2.66-2.64s1.2-2.66,2.66-2.66,2.66,1.18,2.66,2.66-1.2,2.64-2.66,2.64ZM81.98,39.72l-2.57,35.35v.02h-.02l-34.42-8.78c7.51-14.2,21.23-24.1,37.01-26.6ZM41.06,75.96c.36-1.37.84-2.74,1.34-4.08.02-.03.05-.14.1-.19l31.11,10.27c-.72,1.39-1.22,2.9-1.56,4.46l-31.06-10.26s.05-.12.07-.19ZM53.58,125.51c-9.4-9.62-14.58-22.26-14.54-35.74.02-2.61.29-5.2.7-7.87l.33.12,32.43,13.31-18.92,30.17ZM61.69,132.27l-.14-.14c-1.22-.74-2.4-1.63-3.36-2.45l-.22-.17,19.28-26.41c1.13,1.12,2.42,2.08,3.81,2.83l-19.38,26.33ZM89.82,140.93c-8.15-.05-15.95-1.97-22.98-5.64l22.91-27.01,22.98,27.22c-7.05,3.62-14.82,5.42-22.91,5.42ZM121.6,129.92c-1.18.86-2.28,1.75-3.62,2.61-.02,0-.05.05-.07.1l-19.19-26.55c1.41-.77,2.71-1.73,3.86-2.83l19.09,26.57s-.02.05-.07.1ZM126.04,125.87l-18.56-30.48,32.81-13.14c.46,2.61.62,5.3.6,7.94-.02,13.53-5.3,26.19-14.85,35.69Z"/>
</svg>