<?xml version="1.0" encoding="UTF-8"?>
<svg id="c" data-name="5" xmlns="http://www.w3.org/2000/svg" viewBox="0 0 180 180">
  <defs>
    <style>
      .h {
        fill-rule: evenodd;
      }
    </style>
  </defs>
  <path class="h" d="M54.7,76l65.15-4.34c1.48-.1,2.55-.77,2.91-1.89.31-.82.05-1.73-.61-2.35-10.56-7.91-28.01-10.61-28.01-26.63l-.15-.15c-2.6-2.19-6.94-5.92-10.61-5.71-.36.05-.71.1-1.07.2-10.31,3.01-33.62,35.51-30.31,39.95.82,1.02,2.25.92,2.7.92h0ZM164.85,68.96l-16.28,4.75-8.42,7.09-10.46,24.64-3.47,9.8-.77.05-.05.15-2.14.05-17.09,22.19-3.37.41c-.05-.05-21.84-16.43-27.4-20.1l-14.18.82-2.86,3.83c2.65,2.35,4.34,5.77,4.34,9.59,0,7.09-5.76,12.86-12.91,12.86s-12.86-5.77-12.86-12.86,5.77-12.86,12.86-12.86c1.68,0,3.27.31,4.69.87l2.5-3.37c-6.63-10.92-13.62-21.33-20.2-32.3-.26-.41-1.28-1.22-.31-1.99l100.25-4.03.1-.2.97-1.07c2.96-1.38,6.02-5.1,8.98-6.53,5.51-2.6,10.87-2.91,16.43-5.61,1.74.66,2.24,1.99,1.63,3.83h0ZM83.17,117.58c6.73,4.85,16.53,12.14,20.66,15.25l13.16-17.09-33.83,1.84Z"/>
</svg>