<?xml version="1.0" encoding="UTF-8"?>
<svg id="a" data-name="Layer 1" xmlns="http://www.w3.org/2000/svg" viewBox="0 0 180 180">
  <path d="M141.35,144.78H38.68c-1.76,0-2.95-1.56-2.95-3.18v-42.93c0-1.78,1.31-3.19,3.14-3.19h102.01c2.05,0,3.35,1.43,3.35,3.41v42.72c0,1.5-1.09,3.19-2.88,3.19ZM101.36,113.8c2.9,0,4.8-2.73,4.8-5.28s-2.06-5.14-4.83-5.15l-21.87-.08c-3.03-.01-5.4,2.09-5.57,5.05-.16,2.71,2.01,5.49,5.01,5.49l22.46-.03Z"/>
  <path d="M123.21,86.04l5.06,2.08-2.02,4.9-19.44-.02,7.96-19.23,4.79,1.99c.57.24,1.4-.25,1.57-.69.25-.65-.03-1.44-.66-1.71l-4.7-1.99,5.32-12.75,4.8,1.93c.63.25,1.41-.22,1.61-.8s-.1-1.39-.7-1.63l-4.64-1.9,5.24-12.45c2.23-5.29,9.29-6.43,13.6-2.88,3,2.47,4.11,6.44,2.63,10.01l-1.8,4.37-4.59-1.91c-.57-.24-1.3,0-1.64.46-.31.42-.32,1.52.28,1.78l4.99,2.13-5.26,12.73-4.93-2c-.6-.24-1.36.29-1.53.81s.03,1.35.63,1.6l4.85,2.05-5.28,12.81-4.82-1.99c-.45-.19-1.34.08-1.55.43-.29.48-.2,1.36.26,1.86Z"/>
  <path d="M63.86,92.91c-1.47-5.93-3.43-11.56-6.13-16.99-1.45-2.9-3.66-5.09-6.78-6.05l-1.33-5.66c-.36-1.55,0-2.97,1.31-3.83,1.23-.8,2.9-.71,4.03.41.53.53,1.42.44,1.86-.03.49-.51.44-1.41-.11-1.95l-5.33-5.3c-1-1-2.07-1.91-2.33-3.4-.33-1.9.45-3.8,2-4.72s3.76-.96,5.21.29c1.61,1.39,2.98,2.88,4.53,4.42.26.25.91.44,1.22.37s.87-.62.87-.96l.04-11.06c0-1.87,1.62-3.12,3.26-3.22s3.45,1.11,3.46,2.98l.04,11.28c0,.48.44,1.13.8,1.24.45.14,1.14-.09,1.47-.42l3.97-3.93c1.05-1.03,2.94-.9,3.97.1l3.19,3.1-6.92,6.81-4.86,4.77v22.1c-2.7,2.63-4.24,5.96-4.96,9.63l-2.48.02Z"/>
  <path d="M92.96,73.1c-3.61-.94-6.98-.31-10.02,2.09l-.12-3.61c-.02-.55-.83-.96-1.35-.91-.45.04-1.15.55-1.15,1.12l-.02,7.8c-2.3.12-4.11.68-6.38,1.7l-.02-18.33,25.36.04v29.84s-3.05.01-3.05.01c-.49-4.18-2.43-7.84-5.88-10.4,2.34-1.98,3.46-4.48,3.9-7.38.05-.35.07-.98-.03-1.3s-.72-.56-1.24-.7Z"/>
  <polygon points="101.9 92.87 101.9 62.27 104.14 60.11 111.33 53.08 112.78 51.79 117.59 60.24 104.1 92.84 101.9 92.87"/>
  <polygon points="100.12 60.4 75.76 60.39 77.86 58.31 85.42 50.93 109.77 50.95 105.3 55.33 100.12 60.4"/>
  <path d="M111.76,48.35h-25.5s-.01-7.41-.01-7.41c0-.41.42-.81.87-.84h24.02c.42.03.88.46.87.84l-.25,7.41Z"/>
  <path d="M69.02,92.9c.39-2.64,1.51-5.02,3.24-6.97,1.84-2.03,4.23-3.06,6.89-3.54,6.97-1.28,13.57,3.41,14.39,10.52h-24.52Z"/>
  <path d="M56.28,78.95l-14.11,8.88-1.77-2.28c-2.81-3.62-1.94-8.81,1.49-11.63,3.49-2.86,8.78-2.64,11.86.81,1.1,1.23,1.82,2.62,2.54,4.22Z"/>
  <path d="M46.9,92.92c-1.12-.95-2.08-2.04-2.97-3.12l13.39-8.44c1.55,3.79,2.77,7.52,3.81,11.54l-14.24.02Z"/>
  <path d="M87.86,80.97c-1.7-.72-3.19-1.1-5.05-1.41,1.53-3.14,5.08-4.75,8.62-4.07-.23,2.24-1.65,4.19-3.57,5.48Z"/>
  <path d="M101.24,111.24h-22.41c-1.54.01-2.4-1.43-2.41-2.7s1.08-2.66,2.62-2.66h21.87c1.47,0,2.54,1.23,2.63,2.46s-.66,2.9-2.29,2.9Z"/>
</svg>