<?xml version="1.0" encoding="UTF-8"?>
<svg id="e" data-name="1" xmlns="http://www.w3.org/2000/svg" viewBox="0 0 180 180">
  <defs>
    <style>
      .h {
        stroke: #000;
        stroke-miterlimit: 10;
        stroke-width: .25px;
      }
    </style>
  </defs>
  <path class="h" d="M75.91,72.06c1.14-.57,1.71-2.09,1.14-3.23-.57-1.14-2.09-1.71-3.23-1.14l-1.33.76v-2.66l14.24-26.01c.95-1.52-.38-3.61-2.09-3.61h-48.41c-1.9,0-3.04,1.9-2.09,3.61l14.24,26.01v14.81l-3.42,1.71c-1.14.57-1.71,2.09-1.14,3.23.57,1.14,2.09,1.71,3.23,1.14l1.33-.76v9.11l-3.42,1.71c-1.14.57-1.71,2.09-1.14,3.23.57,1.14,2.09,1.71,3.23,1.14l1.33-.76v9.11l-3.42,1.71c-1.14.57-1.71,2.09-1.14,3.23.57,1.14,2.09,1.71,3.23,1.14l1.33-.76v9.11l-3.42,1.71c-1.14.57-1.71,2.09-1.14,3.23.57,1.14,2.09,1.71,3.23,1.14l1.33-.76v5.7c0,.57.19.95.38,1.33l.95,1.33-4.75,2.47c-1.14.57-1.71,2.09-1.14,3.23.57,1.14,2.09,1.71,3.23,1.14l5.32-2.66,6.08,9.11c.95,1.52,3.04,1.52,3.99,0l9.68-14.43c.19-.38.38-.95.38-1.33v-3.42l3.42-1.71c1.14-.57,1.71-2.09,1.14-3.23-.57-1.14-2.09-1.71-3.23-1.14l-1.33.76v-9.11l3.42-1.71c1.14-.57,1.71-2.09,1.14-3.23-.57-1.14-2.09-1.71-3.23-1.14l-1.33.76v-9.11l3.42-1.71c1.14-.57,1.71-2.09,1.14-3.23-.57-1.14-2.09-1.71-3.23-1.14l-1.33.76v-9.11l3.42-1.71c1.14-.57,1.71-2.09,1.14-3.23-.57-1.14-2.09-1.71-3.23-1.14l-1.33.76v-9.11l3.42-1.9ZM80.47,40.93l-11.96,21.83h-16.52l-6.64-12.15h22.02c1.33,0,2.47-1.14,2.47-2.47s-1.14-2.47-2.47-2.47c-25.63,0-24.3,0-24.68,0l-2.66-4.94h40.44v.19ZM53.13,67.51h14.43v3.42l-14.43,7.21v-10.63ZM67.75,134.52l-7.21,10.82-3.8-5.51,11.01-5.51v.19ZM67.75,128.83l-13.67,6.83-.76-1.33v-7.4l14.43-7.21v9.11ZM67.75,114.4l-14.62,7.21v-9.11l14.43-7.21v9.11h.19ZM67.75,99.78l-14.43,7.21v-9.11l14.43-7.21v9.11ZM67.75,85.35l-14.43,7.21v-9.11l14.43-7.21v9.11Z"/>
  <path class="h" d="M149.58,148.57l-14.24-26.01v-2.85l1.33.76c1.14.57,2.66.19,3.23-1.14.57-1.14.19-2.66-1.14-3.23l-3.42-1.71v-9.11l1.33.76c1.14.57,2.66.19,3.23-1.14.57-1.14.19-2.66-1.14-3.23l-3.42-1.71v-9.11l1.33.76c1.14.57,2.66.19,3.23-1.14.57-1.14.19-2.66-1.14-3.23l-3.42-1.71v-9.11l1.33.76c1.14.57,2.66.19,3.23-1.14.57-1.14.19-2.66-1.14-3.23l-3.42-1.71v-9.11l1.33.76c1.14.57,2.66.19,3.23-1.14.57-1.14.19-2.66-1.14-3.23l-3.42-1.71v-3.42c0-.57-.19-.95-.38-1.33l-9.68-14.43c-.95-1.52-3.04-1.52-3.99,0l-6.08,9.11-5.32-3.04c-1.14-.57-2.66-.19-3.23,1.14-.57,1.14-.19,2.66,1.14,3.23l4.75,2.47-.95,1.33c-.19.38-.38.95-.38,1.33v5.7l-1.33-.76c-1.14-.57-2.66-.19-3.23,1.14-.57,1.14-.19,2.66,1.14,3.23l3.42,1.71v9.11l-1.33-.57c-1.14-.57-2.66-.19-3.23,1.14-.57,1.14-.19,2.66,1.14,3.23l3.42,1.71v9.11l-1.33-.76c-1.14-.57-2.66-.19-3.23,1.14-.57,1.14-.19,2.66,1.14,3.23l3.42,1.71v9.11l-1.33-.57c-1.14-.57-2.66-.19-3.23,1.14-.57,1.14-.19,2.66,1.14,3.23l3.42,1.71v14.81l-14.24,26.01c-.95,1.52.38,3.61,2.09,3.61h48.41c1.9,0,3.04-2.09,2.09-3.61ZM123.38,42.82l7.21,10.82v.19l-11.01-5.51,3.8-5.51ZM115.97,53.65l.76-1.33,13.67,6.83v9.3l-14.43-7.21v-7.59ZM115.97,66.56l14.43,7.21v9.11l-14.43-7.21v-9.11ZM115.97,80.98l14.43,7.21v9.11l-14.43-7.21v-9.11ZM115.97,95.6l14.43,7.21v9.11l-14.43-7.21v-9.11ZM130.59,117.44v3.42h-14.43v-10.63l14.43,7.21ZM103.25,147.24l2.66-4.94c.57.19-1.14,0,24.68,0,1.33,0,2.47-1.14,2.47-2.47s-1.14-2.47-2.47-2.47h-22.02l6.64-12.15h16.52l11.96,21.83-40.44.19h0Z"/>
</svg>