<?xml version="1.0" encoding="UTF-8"?>
<svg id="b" data-name="Objects" xmlns="http://www.w3.org/2000/svg" viewBox="0 0 180 180">
  <path d="M54.5,52.44l16.73,11.1c.73.5,1.58.77,2.46.77.28,0,.57-.03.85-.08,1.17-.22,2.21-.91,2.86-1.88l15.95-23.96-2.64-4.53c-3.05-5.13-8.66-8.31-14.65-8.31-4.94,0-9.61,2.14-12.8,5.86-.45.53-.88,1.1-1.26,1.68l-8.76,13.13c-.67.99-.9,2.18-.66,3.36.24,1.17.92,2.18,1.92,2.86Z"/>
  <path d="M91.69,33.29l2.77,4.75.06.16.07.07,10.15,19.2c.07.13.09.29.04.43-.05.15-.15.27-.28.34l-9.71,5.07,32.28,5.21,13.79-29.6-9.69,5.12c-.08.04-.17.07-.26.07-.06,0-.11,0-.17-.03-.14-.04-.26-.14-.33-.28l-5.58-10.57c-2.54-4.78-7.47-7.75-12.88-7.75l-30.51.04s2.9.73,4.88,2.04c2.21,1.47,4.06,3.47,5.39,5.71Z"/>
  <path d="M154.56,89.56c-.25-.65-.55-1.29-.88-1.9l-7.47-13.91c-.56-1.05-1.5-1.82-2.65-2.16-1.14-.34-2.36-.22-3.42.35l-17.67,9.53c-.79.41-1.42,1.03-1.84,1.81-.13.25-.24.51-.33.79-.35,1.14-.24,2.38.31,3.4l13.63,25.35,5.24-.2c5.96-.28,11.41-3.73,14.23-9.01,2.33-4.36,2.64-9.49.85-14.05Z"/>
  <path d="M147.1,111.7c-2.33,1.26-4.97,1.95-7.57,2.07l-5.49.21-.17-.03-.1.03-21.72-.08c-.15,0-.3-.06-.4-.17-.11-.11-.17-.25-.17-.41l.1-10.95-19.8,26.03,19.63,26.09.04-10.96c0-.09.02-.18.07-.26.03-.05.06-.09.11-.14.1-.1.25-.16.4-.16l11.95.05c5.41.01,10.35-2.95,12.9-7.72l14.32-26.94s-2.01,2.22-4.09,3.34Z"/>
  <path d="M82.79,115.89c-.16-.23-.34-.46-.54-.66-.84-.85-1.99-1.33-3.15-1.33l-28.78.09-2.29,4.72c-2.56,5.39-2.08,11.82,1.25,16.8,2.75,4.11,7.13,6.79,12,7.37.69.08,1.4.12,2.09.12l15.79-.04c1.19,0,2.31-.47,3.16-1.32.84-.85,1.3-1.98,1.3-3.18l-.1-20.08c.01-.89-.24-1.74-.73-2.48Z"/>
  <path d="M46.99,118.22l2.4-4.94.1-.14.02-.1,10.3-19.13c.07-.13.19-.23.34-.28.15-.04.3-.03.44.05l9.62,5.24-13.65-29.72-32.26,5.03,9.65,5.2c.08.04.15.11.2.18.03.05.05.1.07.16.04.14.03.3-.04.43l-5.67,10.52c-2.56,4.77-2.27,10.52.74,15.01l17.03,25.32s-1.01-2.82-1.02-5.19c-.01-2.65.62-5.3,1.74-7.66Z"/>
</svg>