<?xml version="1.0" encoding="UTF-8"?>
<svg id="e" data-name="1" xmlns="http://www.w3.org/2000/svg" viewBox="0 0 180 180">
  <path d="M131.87,50.54v78.29c0,1.47-1.26,2.72-2.73,2.72H50.86c-1.47,0-2.73-1.25-2.73-2.72V50.54c0-1.46,1.26-2.72,2.73-2.72h78.28c1.47,0,2.73,1.26,2.73,2.72ZM118.68,68.75c.21-4.18-3.56-7.74-7.75-7.74h-41.86c-4.4,0-7.96,3.56-7.96,7.95v41.66c0,4.4,3.56,7.95,7.96,7.95h41.65c4.4,0,7.96-3.55,7.96-7.95v-41.87Z"/>
  <path d="M151.33,118.16c1.47,0,2.73,1.25,2.73,2.72s-1.26,2.72-2.73,2.72h-13.18v5.23c0,4.4-3.56,7.96-7.96,7.96h-5.23v13.18c0,1.47-1.26,2.72-2.72,2.72s-2.72-1.25-2.72-2.72v-13.18h-15.7v13.18c0,1.47-1.26,2.72-2.73,2.72s-2.72-1.25-2.72-2.72v-13.18h-15.7v13.18c0,1.47-1.25,2.72-2.72,2.72s-2.72-1.25-2.72-2.72v-13.18h-15.7v14.23c0,1.47-1.26,2.72-2.72,2.72s-2.72-1.25-2.72-2.72v-13.19h-5.23c-4.4,0-7.96-3.56-7.96-7.95v-5.24h-13.19c-1.46,0-2.72-1.25-2.72-2.72s1.26-2.72,2.72-2.72h13.19v-15.7h-13.19c-1.46,0-2.72-1.25-2.72-2.72s1.26-2.72,2.72-2.72h13.19v-15.7h-13.19c-1.46,0-2.72-1.26-2.72-2.72s1.26-2.72,2.72-2.72h13.19v-15.7h-14.23c-1.47,0-2.73-1.26-2.73-2.72s1.26-2.73,2.73-2.73h13.18v-5.23c0-4.39,3.56-7.95,7.96-7.95h5.23v-13.19c0-1.47,1.26-2.72,2.72-2.72s2.72,1.25,2.72,2.72v13.19h15.7v-13.19c0-1.47,1.26-2.72,2.73-2.72s2.72,1.25,2.72,2.72v13.19h15.7v-13.19c0-1.47,1.25-2.72,2.72-2.72s2.72,1.25,2.72,2.72v13.19h15.7v-13.61c0-1.47,1.26-2.72,2.72-2.72s2.72,1.25,2.72,2.72v13.19h5.23c4.4,0,7.96,3.56,7.96,7.95v5.24h13.19c1.46,0,2.72,1.25,2.72,2.72s-1.26,2.72-2.72,2.72h-13.19v15.7h13.19c1.46,0,2.72,1.25,2.72,2.72s-1.26,2.72-2.72,2.72v-.63h-13.19v15.7h13.19c1.46,0,2.72,1.26,2.72,2.72s-1.26,2.73-2.72,2.73h-13.19v15.7h14.23ZM131.87,128.83V50.54c0-1.46-1.26-2.72-2.73-2.72H50.86c-1.47,0-2.73,1.26-2.73,2.72v78.29c0,1.47,1.26,2.72,2.73,2.72h78.28c1.47,0,2.73-1.25,2.73-2.72Z"/>
  <path d="M110.93,61.01c4.19,0,7.96,3.56,7.75,7.74v41.87c0,4.4-3.56,7.95-7.96,7.95h-41.65c-4.4,0-7.96-3.55-7.96-7.95v-41.66c0-4.39,3.56-7.95,7.96-7.95h41.86ZM113.65,110.62l-.21-41.87c0-1.46-1.25-2.72-2.72-2.72h-41.65c-1.47,0-2.72,1.26-2.72,2.72v41.87c0,1.46,1.25,2.72,2.72,2.72h41.86c1.47,0,2.72-1.26,2.72-2.72Z"/>
</svg>