<?xml version="1.0" encoding="UTF-8"?>
<svg id="f" data-name="4" xmlns="http://www.w3.org/2000/svg" viewBox="0 0 180 180">
  <defs>
    <style>
      .h {
        fill: none;
        stroke: #000;
        stroke-miterlimit: 10;
        stroke-width: 6px;
      }
    </style>
  </defs>
  <path class="h" d="M142.16,117.49l-3.9-9.19,2.43-3.4c1.47-1.93,1.47-5.33-.97-6.79-1.47-1.43-3.86-1.43-5.79,0l-3.4-7.72,2.39-2.93c1.47-2.39,1-5.29-.93-6.76-1.47-1.47-3.9-1.47-5.87-.46l-2.86-6.79c5.33-7.76,10.15-15.48,13.55-21.77,2.9-4.87,4.82-9.19,5.83-12.58,0-1.93,1.93-6.79-1.46-9.19-3.4-2.9-8.26,0-9.73.96-2.85,1.43-6.75,4.36-10.65,8.22-5.33,4.82-11.58,11.15-17.91,18.38l-7.26-.97c.46-1.93,0-4.36-1.47-5.79-2.39-1.47-5.33-.97-7.26.97l-1.93,2.9-8.26-.97c.5-1.93,0-4.36-1.93-5.79-1.93-1.47-4.86-1.47-6.79.97l-2.39,2.9-10.19-1.43c-.93,0-1.93.46-2.39.93l-7.8,10.19c-.93.96-.93,1.93-.93,2.9.46.96.93,1.43,1.93,1.93l39.22,13.05c-6.79,9.69-13.05,19.38-17.45,27.6-.46,1.46-1.46,2.9-1.93,3.86l-23.24-3.36c-.46,0-1,0-1.47.46l-4.32,5.33c0,.46-.54.96,0,1.93,0,.5.46.5.93.96l23.78,7.76c0,1.93.46,3.86,2.39,4.83,1.46,1.47,3.4,1.47,4.86.97l14.05,21.31v.46h.93c.54,0,1,0,1.47-.46l4.4-5.33c.46-.5.46-1.47,0-1.93l-9.23-21.31c1.43-.96,2.43-1.93,3.9-2.9,6.75-6.29,14.05-14.52,21.77-23.7l22.78,34.36c0,.46.46.46.46.97.5.46,1.47.46,1.93.46,1,0,1.97-.46,2.47-.96l7.72-10.16c1-.96,1-1.93.5-2.9h0Z"/>
</svg>