<?xml version="1.0" encoding="UTF-8"?>
<svg id="e" data-name="1" xmlns="http://www.w3.org/2000/svg" viewBox="0 0 180 180">
  <g id="f" data-name="118, Box, Delivery, Logistic, Return, Shipping">
    <g>
      <path d="M50.66,62.86v-6.06h93.77c1.7,0,3.15-1.45,3.15-3.15s-1.45-3.15-3.15-3.15H47.51c-1.7,0-3.15,1.45-3.15,3.15v2.91l-19.38-15.02,19.38-15.02v2.91c0,1.7,1.45,3.15,3.15,3.15h72.69c1.7,0,3.15-1.45,3.15-3.15s-1.45-3.15-3.15-3.15H50.66v-6.06c0-2.42-2.91-3.88-4.85-2.42l-27.38,21.32c-1.45,1.21-1.45,3.63,0,4.85l27.38,21.08c1.94,1.69,4.85.24,4.85-2.18Z"/>
      <path d="M62.77,38.63c-1.7,0-3.15,1.46-3.15,3.15s1.45,3.15,3.15,3.15h51.61c1.7,0,3.15-1.46,3.15-3.15s-1.45-3.15-3.15-3.15h-51.61Z"/>
      <path d="M161.39,136.04l-27.38-21.32c-1.94-1.45-4.85,0-4.85,2.42v6.06H59.62c-1.7,0-3.15,1.45-3.15,3.15s1.45,3.15,3.15,3.15h72.69c1.7,0,3.15-1.46,3.15-3.15v-2.91l19.39,15.02-19.39,15.02v-2.91c0-1.7-1.45-3.15-3.15-3.15H35.39c-1.7,0-3.15,1.45-3.15,3.15s1.45,3.15,3.15,3.15h93.77v6.06c0,2.42,2.91,3.88,4.85,2.42l27.38-21.32c1.7-1.21,1.7-3.63,0-4.85Z"/>
      <path d="M117.29,141.61c1.7,0,3.15-1.45,3.15-3.15s-1.45-3.15-3.15-3.15h-51.61c-1.7,0-3.15,1.45-3.15,3.15s1.45,3.15,3.15,3.15h51.61Z"/>
      <path d="M60.11,105.27c.24.48.48.73.73.97.24.24,24.47,13.81,24.47,13.81.97.48,2.18.48,2.91,0l24.23-13.57c.97-.49,1.45-1.46,1.45-2.67v-27.38c0-1.21-.73-2.18-1.45-2.67-26.17-14.78-24.47-13.81-24.96-14.05h-1.94c-.48.24-24.47,13.81-24.72,13.81-.97.49-1.45,1.45-1.45,2.67,0,.24,0,27.62,0,27.38.24.49.48,1.21.73,1.7ZM108.08,101.87l-21.32,11.87-18.17-10.18,18.17-10.18,10.66,5.33c1.45.73,3.39.24,4.12-1.45.73-1.45.24-3.39-1.45-4.12l-10.42-5.33v-19.87l18.17,10.18v23.74h.24ZM83.85,67.95v20.35l-18.17,10.18v-20.35l18.17-10.18Z"/>
    </g>
  </g>
</svg>