<?xml version="1.0" encoding="UTF-8"?>
<svg id="e" data-name="1" xmlns="http://www.w3.org/2000/svg" viewBox="0 0 180 180">
  <path d="M148.62,64.39v-19.9c0-6.16-4.72-11.29-10.88-11.7l-27.29-1.85c-.62-.21-1.23-.41-1.85-.21l-31.4-2.05c-4.93-.41-9.64,2.46-11.49,7.18h-19.08c-1.44,0-2.67,1.23-2.67,2.67v13.13h-18.26c-1.44,0-2.67,1.23-2.67,2.67s1.23,2.67,2.67,2.67h18.26v10.47c0,1.44,1.23,2.67,2.67,2.67h18.47c1.03,6.16,6.36,10.26,12.31,9.85h1.23c1.03,2.26,4.1,10.47,0,14.57-.82.82-1.03,1.85-.62,2.87.41,1.03,1.44,1.64,2.46,1.64h20.31l6.98,18.47h-8.62c-7.18,0-13.13,5.75-13.34,12.93,0,.2,0-.41,0,18.67H25.7c-1.44,0-2.67,1.23-2.67,2.67s1.23,2.67,2.67,2.67h120.25c1.44,0,2.67-1.23,2.67-2.67v-20.93c0-6.36-4.31-11.7-10.47-13.13l-15.8-40.83,15.39-1.03c6.16-.41,10.88-5.54,10.88-11.49ZM49.3,51.67h15.6v2.67h-15.6v-2.67ZM64.89,41.2v5.33h-15.6v-5.33h15.6ZM49.3,59.67h15.6v5.34h-15.6v-5.34ZM85.21,93.74c1.64-5.13.2-10.88-1.03-14.36l9.23-.62,5.54,14.98h-13.75ZM118.45,71.98c-1.85.21-2.87,1.85-2.26,3.49l17.65,45.55c.41,1.03,1.23,1.64,2.26,1.64,4.1.41,7.39,3.9,7.39,8.21v7.59h-28.73c-1.44,0-2.67,1.23-2.67,2.67s1.23,2.67,2.67,2.67h28.73v5.34h-52.53v-15.8h28.73c1.44,0,2.67-1.23,2.67-2.67s-1.23-2.67-2.67-2.67h-28.11c1.23-3.08,4.1-5.34,7.59-5.34h12.52c1.85,0,3.08-1.85,2.46-3.49l-16.62-43.91c-.41-1.03-1.44-1.85-2.67-1.64l-17.85,1.23c-3.69.21-6.77-2.67-6.77-6.36v-28.11c0-3.69,3.08-6.57,6.77-6.36l29.75,2.05v10.46c0,1.44,1.23,2.67,2.67,2.67h20.93v8h-28.73c-1.85,0-3.08,1.85-2.46,3.49l20.93,57.87c.41,1.44,2.05,2.05,3.28,1.64,1.44-.41,2.05-2.05,1.64-3.28l-19.7-54.58h27.7c1.44,0,2.67-1.23,2.67-2.67v-13.13c0-1.44-1.23-2.67-2.67-2.67h-21.14v-7.59l25.45,1.64c3.28.21,5.95,3.08,5.95,6.36v19.9c0,3.28-2.67,6.16-5.95,6.36l-18.88,1.44Z"/>
</svg>