<?xml version="1.0" encoding="UTF-8"?>
<svg id="f" data-name="4" xmlns="http://www.w3.org/2000/svg" viewBox="0 0 180 180">
  <defs>
    <style>
      .h {
        fill: none;
        fill-rule: evenodd;
        stroke: #000;
        stroke-miterlimit: 10;
        stroke-width: 4px;
      }
    </style>
  </defs>
  <path class="h" d="M90.18,149.58c1.91-2.32,3.74-5.16,5.65-7.48,18.3-1.42,33.34-15.05,43.67-27.21,1.42,1.38,2.84,3.25,4.27,5.16,3.25-8.94,4.68-18.79,4.19-28.63-4.19,5.16-8.46,10.78-15.49,12.65.94.94,1.87,1.87,2.81,3.29-10.82,9.39-25.82,15.95-40.83,15.95v-61.94h20.17c.94,1.42,2.81,2.85,4.68,2.85,8.01,0,8.01-12.65,0-12.65-1.87,0-3.29.9-4.68,2.32h-21.14v-3.29c10.33-1.38,10.33-19.68-3.29-20.17-12.2,0-15.01,17.81-3.75,20.17v3.29h-19.72c-.94-1.42-2.81-2.32-4.68-2.32-7.56,0-7.56,12.65,0,12.65,1.87,0,3.74-1.43,4.68-2.85h18.79v61.94c-14.56,0-28.63-5.61-40.86-15.95.93-1.42,1.91-2.36,2.81-3.29-6.59-1.38-10.78-7.48-15.5-12.65,0,9.84,1.42,19.68,4.27,28.63,1.83-1.91,3.25-3.78,4.64-5.16,10.85,12.65,24.92,25.3,43.22,26.72l6.1,7.97Z"/>
  <path d="M90.18,38.59c.99,0,2.16.38,2.16,2.17,0,1.27-1.11,2.61-2.16,2.61s-2.17-1.39-2.17-2.61c0-1.13,1.03-2.17,2.17-2.17M90.18,35.59c-2.77,0-5.17,2.36-5.17,5.17s2.4,5.61,5.17,5.61,5.16-2.81,5.16-5.61c0-3.29-2.32-5.17-5.16-5.17h0Z"/>
</svg>