<?xml version="1.0" encoding="UTF-8"?>
<svg id="e" data-name="1" xmlns="http://www.w3.org/2000/svg" viewBox="0 0 180 180">
  <g id="f" data-name="103, Delivery, Logistic, Order, Package, Shipping">
    <g>
      <path d="M151.06,58.56l-60.67-31.71c-.85-.42-1.69-.42-2.33,0l-60.67,31.71c-.85.42-1.48,1.27-1.48,2.32v89.84c0,1.48,1.27,2.75,2.75,2.75h121.55c1.48,0,2.75-1.27,2.75-2.75V60.88c-.42-1.06-.85-1.9-1.9-2.32ZM46.84,121.55h84.56v5.28H46.84v-5.28ZM46.84,110.98h84.56v5.29H46.84v-5.29ZM46.84,100.41h84.56v5.28H46.84v-5.28ZM131.4,95.13H46.84v-5.28h84.56v5.28h0ZM46.84,132.12h84.56v5.28H46.84v-5.28ZM131.4,84.56H46.84v-5.28h84.56v5.28h0ZM46.84,147.97v-5.28h84.56v5.28H46.84ZM147.25,147.97h-10.57v-71.24c0-1.48-1.27-2.75-2.75-2.75H44.3c-1.48,0-2.75,1.27-2.75,2.75v71.24h-10.57V62.36l58.13-30.44,58.13,30.23v85.82Z"/>
      <path d="M78.55,50.31c0,5.92,4.65,10.57,10.57,10.57s10.57-4.65,10.57-10.57-4.65-10.57-10.57-10.57-10.57,4.65-10.57,10.57ZM94.4,50.31c0,2.96-2.33,5.28-5.28,5.28s-5.28-2.33-5.28-5.28,2.33-5.28,5.28-5.28,5.28,2.33,5.28,5.28Z"/>
    </g>
  </g>
</svg>