<?xml version="1.0" encoding="UTF-8"?>
<svg id="a" data-name="Layer 1" xmlns="http://www.w3.org/2000/svg" viewBox="0 0 180 180">
  <defs>
    <style>
      .h {
        fill: #050505;
      }

      .i {
        fill: none;
        stroke: #050505;
        stroke-miterlimit: 10;
        stroke-width: 2px;
      }
    </style>
  </defs>
  <g>
    <polygon class="h" points="103.36 85.22 103.36 93.68 103.36 94.7 90.15 94.7 90.15 93.68 90.15 85.22 103.36 85.22"/>
    <rect class="h" x="42.2" y="50.98" width="12.18" height="3.4"/>
    <polygon class="h" points="137.55 85.22 137.55 93.68 137.55 94.7 124.35 94.7 124.35 93.68 124.35 85.22 137.55 85.22"/>
    <rect class="h" x="98.8" y="71.5" width="13.2" height="9.5"/>
    <rect class="h" x="121.08" y="71.5" width="13.2" height="9.5"/>
    <polygon class="h" points="107.21 93.68 107.21 85.22 120.41 85.22 120.41 93.68 120.41 94.7 107.21 94.7 107.21 93.68"/>
    <path class="h" d="M16.57,106.24h144.15l-7.77,21.81c-.1.32-.15.62-.15.93v.03c-.08.02-.15.02-.24.02-.13,0-.29-.02-.4-.03-1.26-.22-2.24-1.38-2.24-2.79,0-1.06-.86-1.93-1.92-1.93h-.1c-1.06,0-1.92.87-1.92,1.93,0,1.55-1.19,2.83-2.64,2.83s-2.64-1.28-2.64-2.83c0-1.06-.86-1.93-1.93-1.93h-.08c-1.06,0-1.92.87-1.92,1.93,0,1.55-1.19,2.83-2.64,2.83s-2.64-1.28-2.64-2.83c0-1.06-.86-1.93-1.93-1.93h-.08c-1.06,0-1.92.87-1.92,1.93,0,1.55-1.19,2.83-2.64,2.83s-2.64-1.28-2.64-2.83c0-1.06-.86-1.93-1.93-1.93h-.08c-1.06,0-1.93.87-1.93,1.93,0,1.55-1.18,2.83-2.62,2.83s-2.64-1.28-2.64-2.83c0-1.06-.87-1.93-1.93-1.93h-.08c-1.06,0-1.93.87-1.93,1.93,0,1.55-1.18,2.83-2.64,2.83s-2.62-1.28-2.62-2.83c0-1.06-.87-1.93-1.93-1.93h-.08c-1.06,0-1.93.87-1.93,1.93,0,1.55-1.18,2.83-2.64,2.83s-2.59-1.23-2.62-2.74v-.08c0-1.06-.86-1.93-1.92-1.93l-.02.02v-.02c-1.06,0-1.92.87-1.92,1.93v.08c-.03,1.51-1.21,2.74-2.64,2.74s-2.64-1.28-2.64-2.83c0-1.06-.86-1.93-1.92-1.93h-.08c-1.08,0-1.93.87-1.93,1.93,0,1.55-1.18,2.83-2.64,2.83s-2.64-1.28-2.64-2.83c0-1.06-.86-1.93-1.92-1.93h-.1c-1.06,0-1.92.87-1.92,1.93,0,1.55-1.18,2.83-2.64,2.83s-2.64-1.28-2.64-2.83c0-1.06-.86-1.93-1.92-1.93h-.1c-1.06,0-1.92.87-1.92,1.93,0,1.55-1.18,2.83-2.64,2.83s-2.64-1.28-2.64-2.83c0-1.06-.86-1.93-1.92-1.93h-.1c-1.06,0-1.92.87-1.92,1.93,0,1.55-1.18,2.83-2.64,2.83s-2.64-1.28-2.64-2.83c0-1.06-.86-1.93-1.92-1.93h-.1c-1.06,0-1.92.87-1.92,1.93,0,1.55-1.18,2.83-2.64,2.83s-2.64-1.28-2.64-2.83c0-1.06-.86-1.93-1.92-1.93h-.1c-1.06,0-1.92.87-1.92,1.93,0,1.55-1.19,2.83-2.64,2.83s-2.64-1.28-2.64-2.83c0-1.06-.86-1.93-1.92-1.93h-.1c-1.06,0-1.92.87-1.92,1.93,0,.61-.19,1.18-.49,1.63-.19-.13-.39-.27-.61-.37-2.56-1.09-5.38-7.16-7.52-16.2-.42-1.72-.77-3.43-1.08-5.03Z"/>
    <polygon class="h" points="42.2 69.46 42.2 59.76 54.38 59.76 54.38 69.46 54.38 69.48 42.2 69.48 42.2 69.46"/>
    <path class="h" d="M65.9,74.84l4.93,18.84.03.1H23.94l4.96-18.94h10.33c.1.02.19.02.29.02h17.58c.08,0,.19,0,.27-.02h8.54Z"/>
    <path class="h" d="M139.43,99.06c.64,0,1.28-.24,1.77-.66l3.31-2.91h20.1l-.87,2.25s0,.03-.02.05l-1.9,5.37H16.02c-.27-1.51-.47-2.88-.62-3.97l8.51-.02h50.44c.25,0,.5-.05.74-.12h64.35Z"/>
  </g>
  <g>
    <rect class="i" x="42.2" y="50.98" width="12.18" height="3.4"/>
    <polygon class="i" points="42.2 69.46 42.2 59.76 54.38 59.76 54.38 69.46 54.38 69.48 42.2 69.48 42.2 69.46"/>
    <path class="i" d="M39.23,74.84c.1.02.19.02.29.02h17.58c.08,0,.19,0,.27-.02h8.54l4.93,18.84.03.1H23.94l4.96-18.94h10.33Z"/>
    <path class="i" d="M23.91,99.18h50.44c.25,0,.5-.05.74-.12h64.35c.64,0,1.28-.24,1.77-.66l3.31-2.91h20.1l-.87,2.25s0,.03-.02.05l-1.9,5.37H16.02c-.27-1.51-.47-2.88-.62-3.97l8.51-.02Z"/>
    <polygon class="i" points="90.15 93.68 90.15 85.22 103.36 85.22 103.36 93.68 103.36 94.7 90.15 94.7 90.15 93.68"/>
    <rect class="i" x="98.8" y="71.5" width="13.2" height="9.5"/>
    <rect class="i" x="121.08" y="71.5" width="13.2" height="9.5"/>
    <polygon class="i" points="137.55 94.7 124.35 94.7 124.35 93.68 124.35 85.22 137.55 85.22 137.55 93.68 137.55 94.7"/>
    <polygon class="i" points="120.41 85.22 120.41 93.68 120.41 94.7 107.21 94.7 107.21 93.68 107.21 85.22 120.41 85.22"/>
    <path class="i" d="M152.57,129.03c-.13,0-.29-.02-.4-.03-1.26-.22-2.24-1.38-2.24-2.79,0-1.06-.86-1.93-1.92-1.93h-.1c-1.06,0-1.92.87-1.92,1.93,0,1.55-1.19,2.83-2.64,2.83s-2.64-1.28-2.64-2.83c0-1.06-.86-1.93-1.93-1.93h-.08c-1.06,0-1.92.87-1.92,1.93,0,1.55-1.19,2.83-2.64,2.83s-2.64-1.28-2.64-2.83c0-1.06-.86-1.93-1.93-1.93h-.08c-1.06,0-1.92.87-1.92,1.93,0,1.55-1.19,2.83-2.64,2.83s-2.64-1.28-2.64-2.83c0-1.06-.86-1.93-1.93-1.93h-.08c-1.06,0-1.93.87-1.93,1.93,0,1.55-1.18,2.83-2.62,2.83s-2.64-1.28-2.64-2.83c0-1.06-.87-1.93-1.93-1.93h-.08c-1.06,0-1.93.87-1.93,1.93,0,1.55-1.18,2.83-2.64,2.83s-2.62-1.28-2.62-2.83c0-1.06-.87-1.93-1.93-1.93h-.08c-1.06,0-1.93.87-1.93,1.93,0,1.55-1.18,2.83-2.64,2.83s-2.59-1.23-2.62-2.74v-.08c0-1.06-.86-1.93-1.92-1.93l-.02.02v-.02c-1.06,0-1.92.87-1.92,1.93v.08c-.03,1.51-1.21,2.74-2.64,2.74s-2.64-1.28-2.64-2.83c0-1.06-.86-1.93-1.92-1.93h-.08c-1.08,0-1.93.87-1.93,1.93,0,1.55-1.18,2.83-2.64,2.83s-2.64-1.28-2.64-2.83c0-1.06-.86-1.93-1.92-1.93h-.1c-1.06,0-1.92.87-1.92,1.93,0,1.55-1.18,2.83-2.64,2.83s-2.64-1.28-2.64-2.83c0-1.06-.86-1.93-1.92-1.93h-.1c-1.06,0-1.92.87-1.92,1.93,0,1.55-1.18,2.83-2.64,2.83s-2.64-1.28-2.64-2.83c0-1.06-.86-1.93-1.92-1.93h-.1c-1.06,0-1.92.87-1.92,1.93,0,1.55-1.18,2.83-2.64,2.83s-2.64-1.28-2.64-2.83c0-1.06-.86-1.93-1.92-1.93h-.1c-1.06,0-1.92.87-1.92,1.93,0,1.55-1.18,2.83-2.64,2.83s-2.64-1.28-2.64-2.83c0-1.06-.86-1.93-1.92-1.93h-.1c-1.06,0-1.92.87-1.92,1.93,0,1.55-1.19,2.83-2.64,2.83s-2.64-1.28-2.64-2.83c0-1.06-.86-1.93-1.92-1.93h-.1c-1.06,0-1.92.87-1.92,1.93,0,.61-.19,1.18-.49,1.63-.19-.13-.39-.27-.61-.37-2.56-1.09-5.38-7.16-7.52-16.2-.42-1.72-.77-3.43-1.08-5.03h144.15l-7.77,21.81c-.1.32-.15.62-.15.93v.03c-.08.02-.15.02-.24.02Z"/>
  </g>
</svg>