<?xml version="1.0" encoding="UTF-8"?>
<svg id="g" data-name="OBJECTS" xmlns="http://www.w3.org/2000/svg" viewBox="0 0 180 180">
  <path d="M6.54,67.86h115.77v2.01h3.46c.54,0,.98.44.98.98v10.21c0,.54-.44.98-.98.98h-3.46v17.27c.62.28,1.19.65,1.69,1.1h2.67c.09-.11.21-.19.35-.23v-19.96c0-.21.06-.41.17-.57.18-.27.49-.45.85-.45h9.23v-4.08c0-.82-.25-1.62-.72-2.29l-.57-.81v-2.22l1.72,2.45c.74,1.05,1.13,2.3,1.13,3.58v3.37h9.64c.79,0,1.52.31,2.05.84.32.32.57.71.72,1.15l.06.19s0,0,0,0l.05.15h0l2.58,7.66h18c.16,0,.31.02.46.05.15.03.29.08.43.13.14.06.27.13.39.21.31.21.56.49.74.81.07.13.13.27.17.41.04.14.08.29.09.45,0,.08.01.16.01.24v.77c.57,0,1.04.46,1.04,1.04v12.59l-3.64.02c-.25,3.48-3.14,6.23-6.69,6.23-2.87,0-5.32-1.81-6.27-4.35l-.23.04h-31.43v-1.89s-.05-.01-.08-.02c-.05-.02-.1-.05-.15-.09h-.56c-.21,3.52-3.12,6.31-6.69,6.31s-6.48-2.79-6.69-6.31h-.04c-.21,3.52-3.12,6.31-6.69,6.31s-6.48-2.79-6.69-6.31h-6.5v-1.44h-49.08c.05.34.09.68.09,1.04,0,3.71-3,6.71-6.71,6.71s-6.71-3-6.71-6.71c0-.35.04-.7.09-1.04h-.18c.05.34.09.68.09,1.04,0,3.71-3,6.71-6.71,6.71s-6.71-3-6.71-6.71c0-.35.04-.7.09-1.04H6.54v3.74h-1.81v-40.26h1.81ZM165.03,107.75c1.29,0,2.33-1.04,2.33-2.33s-1.04-2.33-2.33-2.33-2.33,1.04-2.33,2.33,1.04,2.33,2.33,2.33ZM141.95,88.76c0,.24.19.43.43.43h9.03l-2.19-6.92c-.14-.44-.55-.74-1.01-.74h-5.83c-.24,0-.43.19-.43.43v6.81ZM119.62,107.57c1.18,0,2.14-.96,2.14-2.14s-.96-2.14-2.14-2.14-2.14.96-2.14,2.14.96,2.14,2.14,2.14ZM106.19,107.57c1.18,0,2.14-.96,2.14-2.14s-.96-2.14-2.14-2.14-2.14.96-2.14,2.14.96,2.14,2.14,2.14ZM37.3,107.57c1.18,0,2.14-.96,2.14-2.14s-.96-2.14-2.14-2.14-2.14.96-2.14,2.14.96,2.14,2.14,2.14ZM23.88,107.57c1.18,0,2.14-.96,2.14-2.14s-.96-2.14-2.14-2.14-2.14.96-2.14,2.14.96,2.14,2.14,2.14Z"/>
</svg>