<?xml version="1.0" encoding="UTF-8"?>
<svg id="f" data-name="4" xmlns="http://www.w3.org/2000/svg" viewBox="0 0 180 180">
  <defs>
    <style>
      .h {
        fill-rule: evenodd;
      }
    </style>
  </defs>
  <path class="h" d="M124.89,110.41c-3.29,0-6.07,2.46-6.07,6.07,0,3.26,2.78,6.1,6.07,6.1,3.62,0,6.07-2.84,6.07-6.1,0-3.62-2.46-6.07-6.07-6.07h0ZM135.81,97.88h-16.22v-13.76h11.37s4.85.39,4.85,4.04v9.72ZM139.42,89.39c0-2.84-1.16-5.27-3.23-6.88-1.61-1.23-3.23-1.65-5.23-1.65h-14.21c0,7.3-.39,15.41-.39,23.1H38.51v10.53h5.69c.77-4.07,4.46-7.3,8.53-7.3,4.85,0,8.53,3.23,9.3,7.3h4.85c1.23-3.65,4.46-6.49,8.92-6.49,4.07,0,7.75,2.84,8.53,6.49h30.82c.84-4.46,4.91-7.69,9.75-7.69s8.92,3.23,9.69,7.69h6.91v-10.53h-2.07v-14.57ZM75.79,110.83c-3.23,0-6.07,2.84-6.07,6.07,0,3.65,2.84,6.49,6.07,6.49s6.07-2.84,6.07-6.49c0-3.23-2.78-6.07-6.07-6.07h0ZM52.72,110.41c-3.23,0-6.14,2.46-6.14,6.07,0,3.26,2.91,6.1,6.14,6.1,3.62,0,6.46-2.84,6.46-6.1,0-3.62-2.84-6.07-6.46-6.07h0ZM40.51,56.6h72.16c1.23,0,2.07,1.19,2.07,2.42v41.28c0,1.23-.84,2.04-2.07,2.04H40.51c-1.16,0-2-.81-2-2.04v-41.28c0-1.23.84-2.42,2-2.42h0Z"/>
</svg>